# xmcd
#
# Track frame offsets: 
#        183
#        15460
#        33858
#        50055
#        67123
#        82883
#        100720
#        120065
#        137543
#        160158
#
# Disc length: 2357 seconds
#
# Revision: 0
# Processed by: cddbd v1.5.2PL0 Copyright (c) Steve Scherf et al.
# Submitted via: ExactAudioCopy v0.95b4
#
DISCID=6e09330a
DTITLE=Christian, Roger - Ceckmate
DYEAR=1900
DGENRE=R&B
TTITLE0=Take It From Me
TTITLE1=Checkmate
TTITLE2=Stop Start
TTITLE3=Stop Yourself From Falling
TTITLE4=Stay With Me Tonight
TTITLE5=Loving You Is So Easy
TTITLE6=Chains
TTITLE7=Worlds Apart
TTITLE8=Mwanzia
TTITLE9=Love Will Find A Way
EXTD=
EXTT0=
EXTT1=
EXTT2=
EXTT3=
EXTT4=
EXTT5=
EXTT6=
EXTT7=
EXTT8=
EXTT9=
PLAYORDER=
